<?xml version="1.0" encoding="utf-8"?>
<!-- Generator: Adobe Illustrator 24.0.1, SVG Export Plug-In . SVG Version: 6.00 Build 0)  -->
<svg version="1.1" id="Layer_1" xmlns="http://www.w3.org/2000/svg" xmlns:xlink="http://www.w3.org/1999/xlink" x="0px" y="0px"
	 viewBox="0 0 773 100" style="enable-background:new 0 0 773 100;" xml:space="preserve">
<style type="text/css">
	.st0{fill:#FFFFFF;}
</style>
<g id="_x30_08b89fb-f913-4cd5-a996-5c0c65ea4f3f" transform="matrix(6.018702832517122,0,0,6.018702832517122,118.12585091344471,-32.079685638125675)">
	<path class="st0" d="M6.9,6.8c0-0.1,0-0.6-0.1-0.8C5.3,6.1,3.7,6.1,2.1,6.1C1.9,6.1,1.4,6,1.3,6C1.2,6,0.8,6.1,0.6,6.1
		c-0.1,0-0.3,1.2-0.3,1.4c0,0.1,0.2,2.7,0.2,2.8c0,0.1-0.1,1-0.1,2.4c0,0.6,0.2,1.5,0.2,1.6S0.4,15,0.4,15.1v0.5h1.4
		c0.2-0.4,0.3-0.7,0.3-1c0-0.6-0.3-0.9-0.3-1.7C1.9,12.8,2,12.4,2,12.1c0-0.1,0.1-0.3,0.2-0.4c0.2-0.1,1.7-0.2,2.3-0.2
		c0.1,0,0.9,0.1,1,0.1h1.3c0-0.1,0-0.2,0-1.6H2c0-0.1-0.1-0.2-0.1-0.3S2.1,9,2.1,8.8c0.1-0.6-0.2-1,0-1.3c0.9,0,2.8,0,2.9,0
		s1.5,0.1,1.6,0.1C7,7.6,6.9,7,6.9,6.8z M14.5,6.1c-1.1-0.1-3.3-0.2-3.4-0.2c-0.1,0-2.2,0.2-3.2,0.3c0,0.4-0.1,1.2-0.1,1.3
		c0,0.1,0.1,4.2,0.2,6.3c0,0.4-0.1,1.3-0.1,1.7L8,15.6h6.4v-0.2c0-0.1-0.1-0.2-0.1-0.3c0-0.3,0-0.6-0.1-0.8c-0.2,0-0.4-0.1-0.5-0.1
		c-2-0.1-2.8,0-2.9,0c-0.1,0-1.1-0.1-1.3-0.3c0.4-2.7-0.3-2.4,1.9-2.4c0.1,0,1.3,0.2,1.5,0.2h1.3c0.2-0.1,0.2-0.7,0.2-0.9
		c0-0.1,0-0.5-0.1-0.7l0.1-0.1c-1.2,0.1-2,0.1-2.1,0.1S11.1,10,11,10s-1.1,0.1-1.2,0.1c-0.1,0-0.3-0.1-0.3-0.3
		c0-0.1,0.1-0.2,0.1-0.3c0-0.6,0-1.3,0.1-1.9c0.7-0.2,0.9-0.2,1.4-0.2l2.7,0.1C14.8,7.6,14.4,7.4,14.5,6.1z M20.2,12.8
		c-0.6,0-1.4-0.1-2,0c0.5-0.8,0.5-1.7,0.9-2.6c0.2,0.4,0.4,0.9,0.5,1.4C19.8,11.9,20,12.4,20.2,12.8z M23.1,15.6
		c-1-2.3-1.7-4.3-2.4-6.2c-0.2-0.6-0.6-1.3-0.8-1.7c-0.1-0.4-0.2-0.9-0.4-1.3C19.4,6.2,19.2,6,19.1,6c-0.2,0.6-0.5,1.2-0.7,1.6
		c-0.3,0.7-0.9,1.5-1,1.9c-0.5,1.7-1.3,4.4-2.2,6.1H17c0.2-0.4,0.1-0.9,0.5-1.1c0.5-0.3,1.5,0,3.3-0.1c0.1,0.4,0.3,0.8,0.5,1.2
		L23.1,15.6L23.1,15.6z M30.6,6.9c0-0.2-0.1-0.7-0.2-0.9c-0.7,0.1-2.2,0.1-2.3,0.1C28,6.1,24.7,6,24.6,6c-0.2,0-0.7,0.2-0.7,0.6v1
		c0.3,0,0.7,0.2,0.8,0.2s0.8-0.1,0.9-0.1s0.7,0,0.8,0.2c0.2,0.5,0.2,1.7,0.2,1.8c0,1.2-0.2,0.6,0,3.6c0,0.7-0.1,0.9,0,1
		c0.1,0.6,0,1.1,0.1,1.5c0.5,0,0.8-0.1,1.6,0c-0.2-0.1,0-0.8,0-1v-3.1c0-0.1-0.1-0.8-0.1-1.2c0-0.6,0.1-1.8,0.1-2.7
		c0.2-0.2,0.6-0.2,0.8-0.2c0.1,0,1.2,0,1.4,0C30.6,7.6,30.6,7.1,30.6,6.9z M39.1,6.1C38.6,6.1,38,6,37.4,6c0.1,0.3,0,0.7,0.1,1.2
		c0.1,0.8-0.1,1.9-0.1,2.1v2.8c0,0.6-0.4,1.8-1.3,1.9c-0.3,0-0.9,0.3-1,0.3c-0.4,0-0.8-0.3-1.2-0.5c-0.2-0.1-0.4-0.2-0.5-0.4
		c-0.2-0.4-0.2-1.1-0.2-1.2v-1.8c0-0.1-0.1-0.4-0.1-0.6c0-0.1,0.1-0.5,0.1-0.6c0.1-2,0-2.6,0-3.1c-0.8,0.2-1.1,0-1.5,0.1
		c-0.1,0-0.1-0.1-0.1-0.1c0,0.3-0.2,3-0.2,3.1s0.1,1.5,0.1,2.3s0,1.5,0.2,2.2c0,0.3,0.4,0.6,0.5,0.8c0.5,1,1.9,1.3,2.8,1.3
		c1.3,0,0.4,0.1,1.7-0.4c2.7-1,2.3-4.1,2.2-5.9C39,8.3,39.1,7.1,39.1,6.1z M44.9,9.1c0,0.3,0,0.5-0.3,0.9c-0.2,0.2-0.6,0.2-0.9,0.2
		c-0.3,0-0.7,0.1-0.8,0.1s-0.8-0.1-1.1-0.2C41.7,10,41.6,9.3,41.6,9c0-0.1,0.1-0.9,0.1-1.3c0,0,0.3,0.1,0.4,0.1s0.9-0.1,1-0.1
		C43.9,7.7,44.9,8.1,44.9,9.1z M46.4,15.7c-0.1-0.7-0.6-1.1-1-2c-0.3-0.8-0.3-1.4-0.8-2.1c1.2-0.1,1.7-2.1,1.7-3c0-0.1,0-0.4,0-0.5
		c-0.1-0.6-1.5-1.7-2.1-1.8c-0.9-0.1-2.6-0.2-2.7-0.2c0,0-1.2,0-1.3,0.3c0,0.3,0,0.8,0,1c0,0.6-0.1,1.3-0.1,1.4v6.4
		c0,0.1,0.1,0.3,0.1,0.5c0.2-0.1,0.3,0,0.4,0c0.1,0,0.7,0.1,1.1,0.1c0-0.6,0.1-1.1,0-3.1c0-0.2-0.1-0.7,0-0.8c0.5,0,1-0.3,1.3,0.1
		c0.7,0.7,1.6,2.5,1.7,3.7c-0.1,0.1,0.7,0.1,0.8,0.1C45.7,15.8,46.2,15.7,46.4,15.7z M54.1,6.1C53,6,50.8,5.9,50.7,5.9
		c-0.1,0-2.2,0.2-3.2,0.3c0,0.4-0.1,1.2-0.1,1.3c0,0.1,0.1,4.2,0.2,6.3c0,0.4-0.1,1.3-0.1,1.7c0,0,0,0.1,0.1,0.1H54v-0.2
		c0-0.1-0.1-0.2-0.1-0.3c0-0.3,0-0.6-0.1-0.8c-0.2,0-0.4-0.1-0.5-0.1c-2-0.1-2.8,0-2.9,0c-0.1,0-1.1-0.1-1.3-0.3
		c0.4-2.7-0.3-2.4,1.9-2.4c0.1,0,1.3,0.2,1.5,0.2h1.3C54,11.6,54,11,54,10.8c0-0.1,0-0.5-0.1-0.7V10c-1.2,0.1-2,0.1-2.1,0.1
		S50.6,10,50.5,10s-1.1,0.1-1.2,0.1c-0.1,0-0.3-0.1-0.3-0.3c0-0.1,0.1-0.2,0.1-0.3c0-0.6,0-1.3,0.1-1.9c0.7-0.2,0.9-0.2,1.4-0.2
		l2.8,0.1C54.4,7.6,54.1,7.4,54.1,6.1z M66.8,12.6c0-0.1,0-0.6-0.1-0.8c-0.1-0.3-0.7-0.9-1-1.1c-0.3-0.1-0.5-0.2-0.7-0.3
		c-0.2,0-0.4,0-0.5-0.1c-0.4-0.3-2-0.2-2-1.3c0-0.5,0.4-1.3,1.2-1.3c0.3,0,0.8,0.2,1,0.4c0.3,0.3,0.5,0.7,0.7,0.7
		c0.3,0.1,0.9,0.2,1,0.2c0.2,0,0.3-0.3,0.3-0.6c0-0.9-1.7-2.6-2.6-2.6c-1,0-3.6,0.5-3.6,2.6c0,0.5,0.2,2.2,1,2.5
		c0.2,0,0.4,0,0.5,0.1c1.1,0.6,2.9,0.1,2.9,1.8c0,0.6-0.9,1.2-1.5,1.2s-1.4-0.3-1.3-1.2c-0.3-0.2-1.4-0.6-1.4-0.6
		c-0.2,0-0.3,0.6-0.3,0.6c0,0.4,0.3,0.7,0.3,0.9c0.6,1.6,2.4,1.8,3.7,1.8c0.1,0,0.5,0,0.6,0C66.1,15.3,66.8,13.6,66.8,12.6z
		 M74.4,6.9c0-0.2-0.1-0.7-0.2-0.9c-0.7,0.1-2.2,0.1-2.3,0.1c-0.1,0-3.4-0.1-3.5-0.1c-0.2,0-0.7,0.2-0.7,0.6v1
		c0.3,0,0.7,0.2,0.8,0.2s0.8-0.1,0.9-0.1s0.7,0,0.8,0.2c0.2,0.5,0.2,1.7,0.2,1.8c0,1.2-0.2,0.6,0,3.6c0,0.7-0.1,0.9,0,1
		c0.1,0.6,0,1.1,0.1,1.5c0.5,0,0.8-0.1,1.6,0c-0.2-0.1,0-0.8,0-1v-3.1c0-0.1-0.1-0.8-0.1-1.2c0-0.6,0.1-1.8,0.1-2.7
		c0.2-0.2,0.6-0.2,0.8-0.2c0.1,0,1.2,0,1.4,0C74.4,7.6,74.4,7.1,74.4,6.9z M80.1,12.8c-0.6,0-1.4-0.1-1.9,0c0.4-0.8,0.5-1.7,0.9-2.6
		c0.2,0.4,0.4,0.9,0.6,1.4C79.7,11.9,79.9,12.4,80.1,12.8z M83,15.6c-1-2.3-1.7-4.3-2.4-6.2c-0.2-0.6-0.6-1.3-0.7-1.7
		c-0.2-0.4-0.2-0.9-0.4-1.3C79.4,6.2,79.2,6,79.1,6c-0.2,0.6-0.5,1.2-0.7,1.6c-0.3,0.7-0.9,1.5-1,1.9c-0.5,1.7-1.3,4.4-2.2,6.1H77
		c0.2-0.4,0.1-0.9,0.5-1.1c0.4-0.3,1.5,0,3.3-0.1c0.1,0.4,0.3,0.8,0.5,1.2L83,15.6L83,15.6z M92.5,13.3c-0.4-0.2-0.9-0.4-1.2-0.6
		c-0.4,0.9-1.8,1.4-2.6,1.4c-1.4,0-3.5-1.3-3.5-3c0-0.5,0.2-1.5,0.3-1.7c1.2-1.6,1.9-1.9,3-1.9c0.1,0,1,0,1.4,0.2
		c0.5,0.2,1,0.8,1.1,0.8c0.3,0,1.2-0.7,1.5-0.6c-0.1-0.1-0.2-0.2-0.2-0.3c-0.3-0.9-1.8-1.8-2.7-1.8c-0.1,0-1.4,0.1-2.1,0.3
		c-0.2,0-0.5,0.3-0.7,0.3c-0.5,0.2-1.1,0.4-1.7,0.8C84,8,84,8.9,83.9,9.7c0,0.4-0.2,1.1-0.2,1.3c0,0.3,0.5,2.1,0.9,2.8
		c0.2,0.4,1.2,1.2,1.4,1.3c1.6,0.6,2,0.5,2.8,0.5c0.1,0,0.7,0,0.8,0C90.4,15.2,92.3,14.7,92.5,13.3z M101.4,5.9
		c-0.3,0.2-0.8,0-1.3,0c-0.2,0-0.8,0.1-0.9,0.3c-1.3,1.3-3,3.4-4,4.4c-0.1-0.3-0.1-1-0.1-1.1s0.2-2.1,0.2-3.1C95,6,94.2,6.2,93.7,6
		c-0.3,0.5-0.3,0.9-0.3,1.3c0,0.7,0,0.5,0.2,1.6c0,0.1,0,0.1,0,1.7c0,0.3-0.1,0.7-0.1,0.9c0,0.6-0.1,1.4-0.1,1.8
		c0,0.2,0.2,0.8,0.2,0.9c0,0.4-0.3,1.3,0,1.4H95c0.1-0.7,0.2-1.5,0.1-2.4c0-0.3,0.6-0.8,0.9-1.1c0.5,0.6,1,1.2,1.4,1.7
		c0.7,0.8,1.3,1.8,1.9,1.8c0.1,0,1.1-0.1,1.6-0.1c-0.8-0.9-1.5-2.4-2.9-3.4c0,0-0.8-1-0.8-1.2c0-0.1,0.6-0.6,0.7-0.9
		c0.3-0.5,0.8-1.3,1-1.6c0.4-0.6,1-0.9,1.4-1.4c0.2-0.2,0.3-0.4,0.4-0.5c0.2-0.2,0.4-0.3,0.5-0.4V5.9H101.4z M108.8,12.6
		c0-0.1,0-0.6-0.1-0.8c-0.1-0.3-0.7-0.9-1-1.1c-0.3-0.1-0.5-0.2-0.7-0.3c-0.2,0-0.4,0-0.5-0.1c-0.4-0.3-2-0.2-2-1.3
		c0-0.5,0.4-1.3,1.2-1.3c0.3,0,0.8,0.2,1,0.4c0.3,0.3,0.5,0.7,0.7,0.7c0.3,0.1,0.9,0.2,1,0.2c0.2,0,0.3-0.3,0.3-0.6
		c0-0.9-1.7-2.6-2.6-2.6c-1.1,0-3.6,0.5-3.6,2.6c0,0.5,0.2,2.2,1,2.5c0.2,0,0.4,0,0.5,0.1c1.1,0.6,2.9,0.1,2.9,1.8
		c0,0.6-0.9,1.2-1.5,1.2s-1.4-0.3-1.3-1.2c-0.3-0.2-1.4-0.6-1.5-0.6c-0.2,0-0.3,0.6-0.3,0.6c0,0.4,0.3,0.7,0.3,0.9
		c0.6,1.6,2.4,1.8,3.7,1.8c0.1,0,0.5,0,0.6,0C108.1,15.3,108.8,13.6,108.8,12.6z"/>
</g>
<g id="_x31_2b520b9-0161-4f32-9b2d-4f60403383e0" transform="matrix(1.1072480402197398,0,0,1.1072480402197398,-0.19144470291308124,-5.60385700488321)">
	<path class="st0" d="M34.3,24.7c1.1-0.5,1.5-1.7,1.1-2.8c-0.5-1-1.7-1.5-2.7-1.1c-12,5.1-19.8,16.9-19.8,29.9
		c0,8.7,3.4,16.8,9.5,22.9c0.8,0.8,2.1,0.8,3,0l0,0c0.8-0.8,0.8-2.1,0-3l0,0c-5.3-5.3-8.3-12.4-8.3-20
		C17.1,39.4,23.9,29.1,34.3,24.7z M79.3,90.8c0.8,0.8,2.2,0.8,3,0l8.1-8.1c0.8-0.8,0.8-2.2,0-3l-8.1-8.1c-0.8-0.8-2.2-0.8-3,0.1
		c-0.8,0.8-0.8,2.1,0,2.9l4.5,4.5h-15c-1.2,0-2.1,0.9-2.1,2.1s0.9,2.1,2.1,2.1H84L79.3,88C78.4,88.7,78.4,90,79.3,90.8z"/>
	<path class="st0" d="M2.5,90h13.7c1.2,0,2.1-0.9,2.1-2.1l0,0v-4.8h27c14.5,0,27.2-9.6,31.2-23.5c4.5-0.6,8.3-3.9,9.4-8.4
		c0.3-1.1-0.4-2.3-1.5-2.5c-1.1-0.3-2.3,0.4-2.5,1.5c-0.8,3.1-3.6,5.3-6.8,5.3c-3.9,0-7-3.1-7-7s3.1-7,7-7c1.8,0,3.5,0.7,4.8,1.9
		L76.5,47l-0.8-1.1c-0.7-0.9-2-1.1-2.9-0.4c-0.9,0.7-1.1,2-0.5,2.9l2.3,3.2c0.4,0.5,0.9,0.8,1.5,0.9c0.1,0,0.1,0,0.2,0
		c0.6,0,1.1-0.2,1.5-0.6l10.5-10.5c0.8-0.8,0.8-2.2,0-3s-2.2-0.8-3,0l-2.4,2.4c-2.1-2-4.9-3.2-7.8-3.2H75
		c-5.1-11.4-16.2-18.8-28.6-19.1l4.6-4.6c0.8-0.8,0.8-2.2-0.1-3C50,10,48.8,10,48,10.7l-8.1,8.1c-0.8,0.8-0.8,2.1,0,3l0,0L48,30
		c0.8,0.8,2.2,0.8,3,0s0.8-2.2,0-3l0,0l-4.5-4.5c10.5,0.4,19.8,6.4,24.3,15.8C66.8,40,64,44,64,48.6c0,5.2,3.5,9.5,8.3,10.8
		C68.5,71,57.7,79,45.4,79h-27v-4.8c0-1.2-0.9-2.1-2.1-2.1H2.5c-1.2,0-2.1,0.9-2.1,2.1V88C0.4,89.1,1.4,90,2.5,90z M4.6,76.3h9.5
		v9.5H4.6V76.3z"/>
</g>
<g id="_x39_7465deb-557e-4ea0-924b-d3b4f0118403" transform="matrix(2.936593280746278,0,0,2.936593280746278,118.23697140073358,52.80534895548001)">
	<path class="st0" d="M1.2,10.7c0-1.4,0.4-2.5,1.1-3.3c0.8-0.9,1.8-1.3,3-1.3s2.2,0.4,3.2,1.3V6.8C7.6,6.1,6.6,5.7,5.3,5.7
		S2.9,6.2,2,7.1c-0.9,1-1.3,2.2-1.3,3.6s0.4,2.7,1.3,3.6s2,1.4,3.3,1.4s2.3-0.4,3.2-1.1V14c-0.9,0.9-1.9,1.3-3.2,1.3S3,14.9,2.3,14
		C1.5,13.2,1.2,12.1,1.2,10.7z M17.9,5.8v9.8h0.4v-4.1h1.5l3.1,4.1h0.5l-3.2-4.1c0.9-0.1,1.6-0.3,2.2-0.8c0.5-0.5,0.8-1.1,0.8-2
		s-0.3-1.6-0.9-2.1s-1.4-0.7-2.4-0.7h-2V5.8z M18.3,6.2H20c0.9,0,1.6,0.2,2.1,0.6s0.8,1,0.8,1.8s-0.3,1.4-0.8,1.8
		C21.6,10.8,20.9,11,20,11h-1.7V6.2z M32.3,10.5h4.3v-0.4h-4.3V6.2h4.6V5.8h-5v9.8h5v-0.4h-4.6V10.5z M49.5,5.5l-4.3,10.2h0.5
		l1.3-3.1h5l1.3,3.1h0.5L49.5,5.5z M49.5,6.5l2.3,5.6h-4.6L49.5,6.5z M60.2,6.2h2.5v9.4h0.4V6.2h2.5V5.8h-5.5L60.2,6.2L60.2,6.2z
		 M74.1,5.8v9.8h0.4V5.8H74.1z M87.2,15.1l-3.8-9.2h-0.5l4.3,10.2l4.3-10.2H91L87.2,15.1z M100.4,10.5h4.3v-0.4h-4.3V6.2h4.6V5.8h-5
		v9.8h5v-0.4h-4.6V10.5z M124.6,6.2h2.5v9.4h0.4V6.2h2.5V5.8h-5.5L124.6,6.2L124.6,6.2z M139,10.5h4.3v-0.4H139V6.2h4.6V5.8h-5v9.8
		h5v-0.4H139V10.5z M156.2,5.5l-4.3,10.2h0.5l1.3-3.1h5l1.3,3.1h0.5L156.2,5.5z M156.2,6.5l2.3,5.6h-4.6L156.2,6.5z M177.2,6.9
		l0.9,8.7h0.4l-1.1-10.2l-3.9,8.3l-3.9-8.3l-1.1,10.2h0.4l0.9-8.7l3.7,7.8L177.2,6.9z"/>
</g>
</svg>
